<svg xmlns="http://www.w3.org/2000/svg" id="svg8" version="1.1" viewBox="0 0 99.521 23.419" height="88.512" width="376.143"><defs id="defs2"><clipPath clipPathUnits="userSpaceOnUse" id="clipPath3758"><path d="M 0,66.384 H 282.107 V 0 H 0 Z" id="path3756"/></clipPath></defs><g transform="translate(67.147 -131.076)" id="layer1"><g id="g3750" transform="matrix(.35278 0 0 -.35278 -67.147 154.495)"><g id="g3752"><g id="g3754" clip-path="url(#clipPath3758)"><g id="g3760" transform="translate(82.223 50.855)"><path d="m 0,0 c -2.735,0 -4.961,-2.225 -4.961,-4.96 v -31.307 h 9.876 v 12.713 h 6.05 l 2.844,7.235 H 4.915 v 9.078 H 17.327 L 20.149,0 Z" id="path3762" fill="#374f5a" fill-opacity="1" fill-rule="nonzero" stroke="none"/></g><g id="g3764" transform="translate(197.694 50.855)"><path d="m 0,0 h -28.073 v -7.241 h 8.796 v -29.026 h 9.876 V -7.241 H 0 Z" id="path3766" fill="#374f5a" fill-opacity="1" fill-rule="nonzero" stroke="none"/></g><g id="g3768" transform="translate(218.293 14.072)"><path d="M 0,0 C 10.146,0 15.965,5.103 15.965,14.001 V 36.783 H 6.656 V 14.776 C 6.656,10.188 4.168,7.448 0,7.448 c -3.78,0 -6.036,2.74 -6.036,7.328 v 22.007 h -9.876 V 14.001 C -15.912,5.103 -10.112,0 0,0" id="path3770" fill="#374f5a" fill-opacity="1" fill-rule="nonzero" stroke="none"/></g><g id="g3772" transform="translate(157.566 27.517)"><path d="m 0,0 c -0.981,-3.979 -3.046,-6.341 -5.566,-6.341 -1.454,0 -6.203,0.788 -6.288,10.939 l -0.004,0.462 h 0.004 l 0.004,0.154 -0.004,0.253 c 0.085,10.15 4.834,10.939 6.288,10.939 2.52,0 4.585,-2.363 5.566,-6.342 l 9.262,-0.05 c -0.906,9.185 -5.91,13.841 -14.879,13.841 -10.012,0 -16.481,-7.32 -16.481,-18.65 V 4.859 c 0,-11.328 6.469,-18.649 16.481,-18.649 8.969,0 13.973,4.656 14.879,13.84 z" id="path3774" fill="#374f5a" fill-opacity="1" fill-rule="nonzero" stroke="none"/></g><g id="g3776" transform="translate(12.582 59.267)"><path d="m 0,0 c -6.735,-5.291 -11.37,-13.13 -12.45,-22.069 0.632,-0.665 1.281,-1.312 1.952,-1.937 l 0.962,-0.85 c 1.287,-1.136 2.632,-2.191 4.018,-3.18 2.892,-2.024 6.03,-3.718 9.362,-5.034 v 12.562 L 17.35,-9.392 c 1.021,0.944 2.095,1.83 3.219,2.65 C 14.841,-2.464 7.63,-0.067 0,0" id="path3778" fill="#28aae1" fill-opacity="1" fill-rule="nonzero" stroke="none"/></g><g id="g3780" transform="translate(33.154 66.384)"><path d="m 0,0 h -0.003 -0.003 c -7.771,-0.012 -14.916,-2.68 -20.591,-7.134 7.692,-0.035 14.805,-2.524 20.594,-6.725 5.79,4.201 12.902,6.69 20.595,6.725 C 14.916,-2.68 7.771,-0.012 0,0" id="path3782" fill="#209d4a" fill-opacity="1" fill-rule="nonzero" stroke="none"/></g><g id="g3784" transform="translate(53.72 59.267)"><path d="m 0,0 c -7.63,-0.067 -14.841,-2.464 -20.569,-6.742 1.124,-0.82 2.198,-1.706 3.22,-2.65 L -3.843,-20.508 V -33.07 c 3.328,1.315 6.464,3.007 9.355,5.029 1.388,0.99 2.735,2.047 4.024,3.185 l 0.963,0.851 c 0.67,0.625 1.32,1.272 1.951,1.936 C 11.37,-13.13 6.735,-5.291 0,0" id="path3786" fill="#9ccb3b" fill-opacity="1" fill-rule="nonzero" stroke="none"/></g><g id="g3788" transform="translate(116.393 28.72)"><path d="M 0,0 -4.036,0.026 0,10.976 4.036,0.026 Z M 7.587,17.266 C 6.425,20.248 4.787,21.972 2.511,22.561 2.323,22.609 1.152,22.642 0,22.65 -1.152,22.642 -2.323,22.609 -2.511,22.561 -4.787,21.972 -6.425,20.248 -7.587,17.266 l -11.634,-31.399 9.951,0.026 2.575,6.834 6.695,-0.026 6.695,0.026 2.575,-6.834 9.951,-0.026 z" id="path3790" fill="#374f5a" fill-opacity="1" fill-rule="nonzero" stroke="none"/></g><g id="g3792" transform="translate(278.044 45.879)"><path d="m 0,0 c -0.667,4.671 -2.334,5.493 -5.589,5.493 -0.361,0 -0.737,-0.027 -1.119,-0.08 -2.004,-0.279 -3.685,-1.757 -4.285,-3.764 l -7.122,-23.822 -0.059,0.177 -0.001,-0.001 v 0.001 l -0.059,-0.177 -7.122,23.822 c -0.6,2.007 -2.281,3.485 -4.286,3.764 -0.381,0.053 -0.757,0.08 -1.118,0.08 -3.255,0 -4.922,-0.822 -5.589,-5.493 l -4.063,-31.291 h 9.876 l 1.995,17.876 5.895,-17.876 h 4.471 4.472 l 5.895,17.876 1.995,-17.876 h 9.876 z" id="path3794" fill="#374f5a" fill-opacity="1" fill-rule="nonzero" stroke="none"/></g><g id="g3796" transform="translate(38.84 16.898)"><path d="m 0,0 c -1.842,-0.214 -3.723,-0.325 -5.636,-0.325 l -0.052,0.001 -0.052,-0.001 c -13.747,0 -25.867,5.717 -33.101,14.426 1.129,-17.307 15.516,-30.999 33.109,-30.999 l 0.044,0.001 0.043,-0.001 c 1.581,0 3.137,0.111 4.659,0.325 15.413,2.166 27.422,14.922 28.45,30.673 C 21.237,6.603 11.39,1.323 0,0" id="path3798" fill="#f47524" fill-opacity="1" fill-rule="nonzero" stroke="none"/></g></g></g></g></g></svg>