<svg width="23" height="20" viewBox="0 0 23 20" fill="none" xmlns="http://www.w3.org/2000/svg">
<path d="M21.5543 2H1.44571C0.657143 2 0 1.6 0 1C0 0.4 0.657143 0 1.44571 0H21.5543C22.3429 0 23 0.4 23 1C23 1.6 22.3429 2 21.5543 2Z" fill="white"/>
<path d="M21.5543 11H1.44571C0.657143 11 0 10.6 0 10C0 9.4 0.657143 9 1.44571 9H21.5543C22.3429 9 23 9.4 23 10C23 10.6 22.3429 11 21.5543 11Z" fill="white"/>
<path d="M21.5543 20H1.44571C0.657143 20 0 19.6 0 19C0 18.4 0.657143 18 1.44571 18H21.5543C22.3429 18 23 18.4 23 19C23 19.6 22.3429 20 21.5543 20Z" fill="white"/>
</svg>
