<svg width="13" height="13" viewBox="0 0 13 13" fill="none" xmlns="http://www.w3.org/2000/svg">
<path d="M0.742857 13C0.52 13 0.371429 12.9257 0.222857 12.7771C-0.0742857 12.48 -0.0742857 12.0343 0.222857 11.7371L11.7371 0.222857C12.0343 -0.0742857 12.48 -0.0742857 12.7771 0.222857C13.0743 0.52 13.0743 0.965714 12.7771 1.26286L1.26286 12.7771C1.11429 12.9257 0.965714 13 0.742857 13Z" fill="#4F453C"/>
<path d="M12.2571 13C12.0343 13 11.8857 12.9257 11.7371 12.7771L0.222857 1.26286C-0.0742857 0.965714 -0.0742857 0.52 0.222857 0.222857C0.52 -0.0742857 0.965714 -0.0742857 1.26286 0.222857L12.7771 11.7371C13.0743 12.0343 13.0743 12.48 12.7771 12.7771C12.6286 12.9257 12.4057 13 12.2571 13Z" fill="#4F453C"/>
</svg>
