<?xml version="1.0" encoding="utf-8"?>
<!-- Generator: Adobe Illustrator 23.0.0, SVG Export Plug-In . SVG Version: 6.00 Build 0)  -->
<svg version="1.1" id="Слой_1" xmlns="http://www.w3.org/2000/svg" xmlns:xlink="http://www.w3.org/1999/xlink" x="0px" y="0px"
	 viewBox="0 0 24 24" style="enable-background:new 0 0 24 24;" xml:space="preserve">
<style type="text/css">
	.st0{fill:none;}
	.st1{fill:#C1C1C1;}
	.st2{fill:#C0C0C0;}
</style>
<g>
	<circle class="st0" cx="12" cy="12" r="11.5"/>
	<path class="st1" d="M12,24C5.4,24,0,18.6,0,12C0,5.4,5.4,0,12,0c6.6,0,12,5.4,12,12C24,18.6,18.6,24,12,24z M12,1
		C5.9,1,1,5.9,1,12s4.9,11,11,11s11-4.9,11-11S18.1,1,12,1z"/>
</g>
<g>
	<path class="st2" d="M16.8,17h-3.4c-0.3,0-0.5-0.2-0.5-0.5v-3.4h-1.7v3.4c0,0.3-0.2,0.5-0.5,0.5H7.2c-0.3,0-0.5-0.2-0.5-0.5v-5.6
		c0-0.3,0.2-0.5,0.5-0.5c0.3,0,0.5,0.2,0.5,0.5v5h2.4v-3.4c0-0.3,0.2-0.5,0.5-0.5h2.8c0.3,0,0.5,0.2,0.5,0.5v3.4h2.4v-5
		c0-0.3,0.2-0.5,0.5-0.5c0.3,0,0.5,0.2,0.5,0.5v5.6C17.4,16.7,17.2,17,16.8,17z"/>
</g>
<g>
	<path class="st2" d="M18.5,12.2c-0.1,0-0.2-0.1-0.3-0.1L12,7.7l-6.1,4.4c-0.2,0.2-0.6,0.1-0.8-0.1c-0.2-0.3-0.1-0.6,0.1-0.8
		l6.5-4.6c0.2-0.1,0.4-0.1,0.6,0l6.5,4.6c0.2,0.2,0.3,0.5,0.1,0.8C18.8,12.1,18.6,12.2,18.5,12.2z"/>
</g>
</svg>
