<?xml version="1.0" encoding="utf-8"?>
<!-- Generator: Adobe Illustrator 23.0.0, SVG Export Plug-In . SVG Version: 6.00 Build 0)  -->
<svg version="1.1" id="login" xmlns="http://www.w3.org/2000/svg" xmlns:xlink="http://www.w3.org/1999/xlink" x="0px" y="0px"
	 viewBox="0 0 14 16" style="enable-background:new 0 0 14 16;" xml:space="preserve">

<path class="st0" d="M7.2,7.2c-1.8,0-3.4-1.6-3.4-3.6S5.3,0,7.2,0c1.8,0,3.4,1.6,3.4,3.6C10.5,5.5,9.1,7.2,7.2,7.2z M7.2,1.3
	c-1.1,0-2,1-2,2.3c0,1.3,0.9,2.3,2,2.3c1.1,0,2-1,2-2.3C9.1,2.3,8.3,1.3,7.2,1.3z"/>
<path class="st0" d="M12.3,15.3H1.9c-0.4,0-0.7-0.3-0.7-0.6L1,11.6c-0.1-1.1,0.8-2.5,2.1-2.9c2.6-0.9,5.4-0.9,8.1,0
	c1.2,0.4,2.2,1.7,2.1,2.9L13,14.7C13,15.1,12.7,15.3,12.3,15.3z M2.6,14h9l0.2-2.5c0.1-0.5-0.5-1.3-1.1-1.6c-2.3-0.7-4.8-0.8-7.1,0
	c-0.7,0.3-1.2,1.1-1.1,1.6L2.6,14z"/>
</svg>
