<svg width="21" height="21" viewBox="0 0 21 21" fill="none" xmlns="http://www.w3.org/2000/svg">
<path d="M9.05173 18.0129C4.07328 18.0129 0 13.9397 0 8.96122C0 4.07328 4.07328 0 9.05173 0C14.0302 0 18.1035 4.07328 18.1035 9.05173C18.0129 14.0302 14.0302 18.0129 9.05173 18.0129ZM9.05173 1.81035C5.06897 1.81035 1.81035 5.06897 1.81035 9.05173C1.81035 13.0345 5.06897 16.2931 9.05173 16.2931C13.0345 16.2931 16.2931 13.0345 16.2931 9.05173C16.2026 5.06897 13.0345 1.81035 9.05173 1.81035Z" fill="#C5C9CC"/>
<path d="M19.7328 20.9999C19.4613 20.9999 19.2802 20.9094 19.0992 20.7284L14.0302 15.6594C13.6681 15.2973 13.6681 14.7542 14.0302 14.3922C14.3923 14.0301 14.9354 14.0301 15.2975 14.3922L20.3664 19.4611C20.7285 19.8232 20.7285 20.3663 20.3664 20.7284C20.2759 20.9094 20.0044 20.9999 19.7328 20.9999Z" fill="#C5C9CC"/>
</svg>
