<?xml version="1.0" encoding="utf-8"?>
<!-- Generator: Adobe Illustrator 23.0.0, SVG Export Plug-In . SVG Version: 6.00 Build 0)  -->
<svg version="1.1" id="Слой_1" xmlns="http://www.w3.org/2000/svg" xmlns:xlink="http://www.w3.org/1999/xlink" x="0px" y="0px"
	 viewBox="0 0 20.6 21" style="enable-background:new 0 0 20.6 21;" xml:space="preserve">
<style type="text/css">
	.st0{fill:#C5C9CC;}
</style>
<path class="st0" d="M9.1,18C4.1,18,0,13.9,0,9c0-4.9,4.1-9,9.1-9c5,0,9.1,4.1,9.1,9.1C18,14,14,18,9.1,18z M9.1,1.8
	c-4,0-7.2,3.3-7.2,7.2c0,4,3.3,7.2,7.2,7.2c4,0,7.2-3.3,7.2-7.2C16.2,5.1,13,1.8,9.1,1.8z"/>
<path class="st0" d="M19.7,21c-0.3,0-0.5-0.1-0.6-0.3L14,15.7c-0.4-0.4-0.4-0.9,0-1.3c0.4-0.4,0.9-0.4,1.3,0l5.1,5.1
	c0.4,0.4,0.4,0.9,0,1.3C20.3,20.9,20,21,19.7,21z"/>
</svg>
