<?xml version="1.0" encoding="utf-8"?>
<!-- Generator: Adobe Illustrator 23.0.0, SVG Export Plug-In . SVG Version: 6.00 Build 0)  -->
<svg version="1.1" id="map-point" style="enable-background:new 0 0 16 19;" xml:space="preserve">
<style type="text/css">
	.st0{fill:#FD9041;}
</style>
<path class="st0" d="M7.5,18.3c-0.1,0-0.4-0.1-0.4-0.1C6.3,17.6,0,12.1,0,8.1c0-4.2,3.4-7.6,7.5-7.6c4.2,0,7.5,3.4,7.5,7.6
	c0,4-6.3,9.5-7,10.1C7.8,18.3,7.7,18.3,7.5,18.3z M7.5,2C4.2,2,1.5,4.7,1.5,8.1c0,2.6,4,6.8,6.1,8.6c2-1.8,6.1-6,6.1-8.6
	C13.5,4.7,10.8,2,7.5,2z"/>
</svg>
