<?xml version="1.0" encoding="utf-8"?>
<!-- Generator: Adobe Illustrator 23.0.0, SVG Export Plug-In . SVG Version: 6.00 Build 0)  -->
<svg version="1.1" id="map-point" xmlns="http://www.w3.org/2000/svg" xmlns:xlink="http://www.w3.org/1999/xlink" x="0px" y="0px"
	 viewBox="0 0 15 17.8" style="enable-background:new 0 0 15 17.8;" xml:space="preserve">
<style type="text/css">
	.st0{fill:#FD9041;}
</style>
<path class="st0" d="M7.5,17.8c-0.1,0-0.4-0.1-0.4-0.1C6.3,17.1,0,11.6,0,7.6C0,3.4,3.4,0,7.5,0C11.7,0,15,3.4,15,7.6
	c0,4-6.3,9.5-7,10.1C7.8,17.8,7.7,17.8,7.5,17.8z M7.5,1.5c-3.3,0-6,2.7-6,6.1c0,2.6,4,6.8,6.1,8.6c2-1.8,6.1-6,6.1-8.6
	C13.5,4.2,10.8,1.5,7.5,1.5z"/>
</svg>
