<svg width="25" height="22" viewBox="0 0 25 22" fill="none" xmlns="http://www.w3.org/2000/svg">
<path d="M10.7 21.4185C4.8 21.4185 0 16.6908 0 10.9782C0 5.16712 4.8 0.439453 10.7 0.439453C16.6 0.439453 21.4 5.16712 21.4 10.9782C21.4 11.5692 21 11.9631 20.4 11.9631C19.8 11.9631 19.4 11.5692 19.4 10.9782C19.4 6.25054 15.5 2.40931 10.7 2.40931C5.9 2.40931 2 6.25054 2 10.9782C2 15.7059 5.9 19.5471 10.7 19.5471C12.9 19.5471 15 18.7591 16.7 17.1833C17 16.8878 17.4 16.4938 17.6 16.0998C17.9 15.7059 18.6 15.6074 19 15.9029C19.4 16.1983 19.5 16.8878 19.2 17.2818C18.8 17.7742 18.5 18.1682 18 18.5622C16 20.4335 13.4 21.4185 10.7 21.4185Z" fill="#98ABAD"/>
<path d="M20.3 13.2434C20.1 13.2434 19.8 13.1449 19.6 12.9479L16.6 10.2887C16.2 9.89474 16.2 9.30379 16.5 8.90983C16.9 8.51587 17.5 8.51587 17.9 8.81134L20.3 10.8796L22.7 8.81134C23.1 8.41738 23.7 8.51587 24.1 8.90983C24.5 9.30379 24.4 9.89474 24 10.2887L21 12.9479C20.7 13.1449 20.5 13.2434 20.3 13.2434Z" fill="#98ABAD"/>
</svg>
