<?xml version="1.0" encoding="utf-8"?>
<!-- Generator: Adobe Illustrator 23.0.0, SVG Export Plug-In . SVG Version: 6.00 Build 0)  -->
<svg version="1.1" id="Слой_1" xmlns="http://www.w3.org/2000/svg" xmlns:xlink="http://www.w3.org/1999/xlink" x="0px" y="0px"
	 viewBox="0 0 9 7.9" style="enable-background:new 0 0 9 7.9;" xml:space="preserve">
<style type="text/css">
	.st0{fill:#9A7B2C;}
</style>
<path class="st0" d="M4.2,4.8L4.2,3.7c0-0.2,0-0.4,0-0.5c0-0.1,0-0.2,0.1-0.3c0.1-0.1,0.2-0.1,0.3-0.1c0.1,0,0.2,0,0.3,0.1
	s0.1,0.2,0.1,0.4c0,0.1,0,0.2,0,0.3L4.7,4.8c0,0.1,0,0.2-0.1,0.3c0,0.1-0.1,0.1-0.2,0.1c-0.1,0-0.1,0-0.2-0.1C4.3,5,4.2,4.9,4.2,4.8
	z M4.5,6.3c-0.1,0-0.2,0-0.2-0.1C4.2,6.1,4.2,6.1,4.2,5.9c0-0.1,0-0.2,0.1-0.2c0.1-0.1,0.1-0.1,0.2-0.1c0.1,0,0.2,0,0.2,0.1
	c0.1,0.1,0.1,0.1,0.1,0.2c0,0.1,0,0.2-0.1,0.3C4.7,6.3,4.6,6.3,4.5,6.3z"/>
<path class="st0" d="M8.7,7.9H0.4c-0.1,0-0.2-0.1-0.3-0.2C0,7.6,0,7.5,0.1,7.4l4.2-7.2c0.1-0.2,0.5-0.2,0.6,0L9,7.4
	c0.1,0.1,0.1,0.2,0,0.3C9,7.8,8.8,7.9,8.7,7.9z M0.9,7.2h7.2L4.5,1L0.9,7.2z"/>
</svg>
