<svg width="10" height="8" viewBox="0 0 10 8" fill="none" xmlns="http://www.w3.org/2000/svg">
<path d="M4.23581 4.78028L4.16777 3.65753C4.16777 3.4534 4.13374 3.28329 4.13374 3.18122C4.13374 3.04513 4.16777 2.94306 4.23581 2.87502C4.30386 2.80697 4.40592 2.77295 4.50799 2.77295C4.64408 2.77295 4.74615 2.80697 4.78017 2.90904C4.81419 3.01111 4.84822 3.1472 4.84822 3.31731C4.84822 3.41938 4.84822 3.52144 4.84822 3.62351L4.74615 4.78028C4.74615 4.91637 4.71213 5.01844 4.6781 5.08648C4.64408 5.15453 4.57604 5.18855 4.50799 5.18855C4.43995 5.18855 4.3719 5.15453 4.33788 5.08648C4.26983 5.01844 4.23581 4.91637 4.23581 4.78028ZM4.50799 6.31129C4.40592 6.31129 4.33788 6.27727 4.26983 6.20922C4.20179 6.14118 4.16777 6.07313 4.16777 5.93704C4.16777 5.83498 4.20179 5.76693 4.26983 5.69888C4.33788 5.63084 4.40592 5.59682 4.50799 5.59682C4.61006 5.59682 4.6781 5.63084 4.74615 5.69888C4.81419 5.76693 4.84822 5.83498 4.84822 5.93704C4.84822 6.03911 4.81419 6.14118 4.74615 6.20922C4.6781 6.27727 4.57604 6.31129 4.50799 6.31129Z" fill="#9A7B2C"/>
<path d="M8.72677 7.87621H0.357236C0.221146 7.87621 0.119079 7.80817 0.0510338 7.7061C-0.0170113 7.60403 -0.0170113 7.46794 0.0510338 7.36587L4.2358 0.153101C4.37189 -0.0510338 4.71212 -0.0510338 4.81419 0.153101L8.99895 7.3999C9.067 7.50196 9.067 7.63805 8.99895 7.74012C8.96493 7.80817 8.82884 7.87621 8.72677 7.87621ZM0.935619 7.19576H8.11437L4.54201 1.00366L0.935619 7.19576Z" fill="#9A7B2C"/>
</svg>
