<svg width="16" height="19" viewBox="0 0 16 19" fill="none" xmlns="http://www.w3.org/2000/svg">
<path d="M7.53659 18.3363C7.39025 18.3363 7.17074 18.2628 7.09757 18.1893C6.29269 17.601 0 12.0863 0 8.11561C0 3.92439 3.36586 0.541992 7.53659 0.541992C11.7073 0.541992 15.0732 3.92439 15.0732 8.11561C15.0732 12.0863 8.78049 17.601 8.04879 18.2628C7.82927 18.3363 7.68293 18.3363 7.53659 18.3363ZM7.53659 2.0126C4.17073 2.0126 1.46342 4.73322 1.46342 8.11561C1.46342 10.6892 5.48781 14.8804 7.53659 16.7187C9.58537 14.8804 13.6098 10.6892 13.6098 8.11561C13.5366 4.73322 10.8293 2.0126 7.53659 2.0126Z" fill="#FD9041"/>
</svg>
