<?xml version="1.0" encoding="utf-8"?><svg xmlns="http://www.w3.org/2000/svg" xmlns:xlink="http://www.w3.org/1999/xlink"><symbol viewBox="0 0 23 20" id="ccard-switch" xmlns="http://www.w3.org/2000/svg"><style>.ast0{fill:#fff}</style><path class="ast0" d="M21.6 2H1.4C.7 2 0 1.6 0 1s.7-1 1.4-1h20.1c.8 0 1.5.4 1.5 1s-.7 1-1.4 1zM21.6 11H1.4C.7 11 0 10.6 0 10s.7-1 1.4-1h20.1c.8 0 1.4.4 1.4 1s-.6 1-1.3 1zM21.6 20H1.4C.7 20 0 19.6 0 19s.7-1 1.4-1h20.1c.8 0 1.4.4 1.4 1s-.6 1-1.3 1z"/></symbol><symbol viewBox="0 0 11 9" id="check" xmlns="http://www.w3.org/2000/svg"><style>.bst0{fill:#34ba49}</style><path class="bst0" d="M3.6 9c-.3 0-.5-.1-.7-.3L.3 5.9c-.4-.4-.4-1 0-1.4s1-.4 1.4 0l1.8 1.9 5-6.1c.3-.4 1-.5 1.4-.1.4.4.5 1 .1 1.4l-5.7 7c-.1.2-.4.4-.7.4z"/></symbol><symbol viewBox="0 0 13 13" id="close" xmlns="http://www.w3.org/2000/svg"><path d="M.743 13a.674.674 0 01-.52-.223.718.718 0 010-1.04L11.737.223a.718.718 0 011.04 0 .718.718 0 010 1.04L1.263 12.777a.674.674 0 01-.52.223z"/><path d="M12.257 13a.674.674 0 01-.52-.223L.223 1.263a.718.718 0 010-1.04.718.718 0 011.04 0l11.514 11.514a.718.718 0 010 1.04.802.802 0 01-.52.223z"/></symbol><symbol viewBox="0 0 24 24" id="house" xmlns="http://www.w3.org/2000/svg"><style>.dst0{fill:none}.dst1{fill:#c1c1c1}.dst2{fill:silver}</style><circle class="dst0" cx="12" cy="12" r="11.5"/><path class="dst1" d="M12 24C5.4 24 0 18.6 0 12S5.4 0 12 0s12 5.4 12 12-5.4 12-12 12zm0-23C5.9 1 1 5.9 1 12s4.9 11 11 11 11-4.9 11-11S18.1 1 12 1z"/><path class="dst2" d="M16.8 17h-3.4c-.3 0-.5-.2-.5-.5v-3.4h-1.7v3.4c0 .3-.2.5-.5.5H7.2c-.3 0-.5-.2-.5-.5v-5.6c0-.3.2-.5.5-.5s.5.2.5.5v5h2.4v-3.4c0-.3.2-.5.5-.5h2.8c.3 0 .5.2.5.5v3.4h2.4v-5c0-.3.2-.5.5-.5s.5.2.5.5v5.6c.1.2-.1.5-.5.5z"/><g><path class="dst2" d="M18.5 12.2c-.1 0-.2-.1-.3-.1L12 7.7l-6.1 4.4c-.2.2-.6.1-.8-.1-.2-.3-.1-.6.1-.8l6.5-4.6c.2-.1.4-.1.6 0l6.5 4.6c.2.2.3.5.1.8-.1.1-.3.2-.4.2z"/></g></symbol><symbol viewBox="0 0 12.3 15.3" id="login" xmlns="http://www.w3.org/2000/svg"><path d="M6.2 7.2c-1.8 0-3.4-1.6-3.4-3.6S4.3 0 6.2 0C8 0 9.6 1.6 9.6 3.6c-.1 1.9-1.5 3.6-3.4 3.6zm0-5.9c-1.1 0-2 1-2 2.3s.9 2.3 2 2.3 2-1 2-2.3c-.1-1.3-.9-2.3-2-2.3zM11.3 15.3H.9c-.4 0-.7-.3-.7-.6L0 11.6c-.1-1.1.8-2.5 2.1-2.9 2.6-.9 5.4-.9 8.1 0 1.2.4 2.2 1.7 2.1 2.9l-.3 3.1c0 .4-.3.6-.7.6zM1.6 14h9l.2-2.5c.1-.5-.5-1.3-1.1-1.6-2.3-.7-4.8-.8-7.1 0-.7.3-1.2 1.1-1.1 1.6l.1 2.5z"/></symbol><symbol viewBox="0 0 20.6 21" id="magnify" xmlns="http://www.w3.org/2000/svg"><style>.fst0{fill:#c5c9cc}</style><path class="fst0" d="M9.1 18C4.1 18 0 13.9 0 9s4.1-9 9.1-9 9.1 4.1 9.1 9.1C18 14 14 18 9.1 18zm0-16.2c-4 0-7.2 3.3-7.2 7.2 0 4 3.3 7.2 7.2 7.2 4 0 7.2-3.3 7.2-7.2-.1-3.9-3.3-7.2-7.2-7.2z"/><path class="fst0" d="M19.7 21c-.3 0-.5-.1-.6-.3l-5.1-5c-.4-.4-.4-.9 0-1.3s.9-.4 1.3 0l5.1 5.1c.4.4.4.9 0 1.3-.1.1-.4.2-.7.2z"/></symbol><symbol viewBox="0 0 15 17.8" id="map-point" xmlns="http://www.w3.org/2000/svg"><style>.gst0{fill:#fd9041}</style><path class="gst0" d="M7.5 17.8c-.1 0-.4-.1-.4-.1C6.3 17.1 0 11.6 0 7.6 0 3.4 3.4 0 7.5 0 11.7 0 15 3.4 15 7.6c0 4-6.3 9.5-7 10.1-.2.1-.3.1-.5.1zm0-16.3c-3.3 0-6 2.7-6 6.1 0 2.6 4 6.8 6.1 8.6 2-1.8 6.1-6 6.1-8.6-.2-3.4-2.9-6.1-6.2-6.1z"/></symbol><symbol viewBox="0 0 25 22" id="reload" xmlns="http://www.w3.org/2000/svg"><path d="M10.7 21.419C4.8 21.419 0 16.69 0 10.979 0 5.166 4.8.438 10.7.438c5.9 0 10.7 4.728 10.7 10.54 0 .59-.4.984-1 .984s-1-.394-1-.985c0-4.727-3.9-8.569-8.7-8.569-4.8 0-8.7 3.842-8.7 8.57 0 4.727 3.9 8.568 8.7 8.568 2.2 0 4.3-.788 6-2.364.3-.295.7-.69.9-1.083.3-.394 1-.493 1.4-.197.4.295.5.985.2 1.379-.4.492-.7.886-1.2 1.28-2 1.871-4.6 2.857-7.3 2.857z"/><path d="M20.3 13.243c-.2 0-.5-.098-.7-.295l-3-2.66c-.4-.393-.4-.984-.1-1.378.4-.394 1-.394 1.4-.099l2.4 2.069 2.4-2.069c.4-.394 1-.295 1.4.099.4.394.3.985-.1 1.379l-3 2.659c-.3.197-.5.295-.7.295z"/></symbol><symbol viewBox="0 0 11 9" id="services-list-check" xmlns="http://www.w3.org/2000/svg"><path d="M3.6 9c-.3 0-.5-.1-.7-.3L.3 5.9c-.4-.4-.4-1 0-1.4.4-.4 1-.4 1.4 0l1.8 1.9 5-6.1c.3-.4 1-.5 1.4-.1.4.4.5 1 .1 1.4l-5.7 7c-.1.2-.4.4-.7.4z"/></symbol><symbol viewBox="0 0 11.7 6.7" id="shevron" xmlns="http://www.w3.org/2000/svg"><style>.jst0{fill:#bac6cd}</style><path class="jst0" d="M5.8 6.7c-.3 0-.5-.1-.7-.3L.3 1.7C-.1 1.3-.1.7.3.3s1-.4 1.4 0l4.1 4 4.2-4c.4-.4 1-.4 1.4 0s.4 1 0 1.4L6.5 6.4c-.1.2-.4.3-.7.3z"/></symbol><symbol viewBox="0 0 9 7.9" id="warning" xmlns="http://www.w3.org/2000/svg"><style>.kst0{fill:#9a7b2c}</style><path class="kst0" d="M4.2 4.8V3.7v-.5c0-.1 0-.2.1-.3.1-.1.2-.1.3-.1.1 0 .2 0 .3.1s.1.2.1.4v.3l-.3 1.2c0 .1 0 .2-.1.3 0 .1-.1.1-.2.1s-.1 0-.2-.1c.1-.1 0-.2 0-.3zm.3 1.5c-.1 0-.2 0-.2-.1-.1-.1-.1-.1-.1-.3 0-.1 0-.2.1-.2.1-.1.1-.1.2-.1s.2 0 .2.1c.1.1.1.1.1.2s0 .2-.1.3c0 .1-.1.1-.2.1z"/><path class="kst0" d="M8.7 7.9H.4c-.1 0-.2-.1-.3-.2-.1-.1-.1-.2 0-.3L4.3.2c.1-.2.5-.2.6 0L9 7.4c.1.1.1.2 0 .3 0 .1-.2.2-.3.2zM.9 7.2h7.2L4.5 1 .9 7.2z"/></symbol></svg>